<?xml version="1.0" encoding="UTF-8"?>
<svg id="Layer_1" xmlns="http://www.w3.org/2000/svg" version="1.1" viewBox="0 0 960 418.8">
  <!-- Generator: Adobe Illustrator 29.7.1, SVG Export Plug-In . SVG Version: 2.1.1 Build 8)  -->
  <defs>
    <style>
      .st0 {
        fill: #0b243e;
      }

      .st0, .st1 {
        fill-rule: evenodd;
      }

      .st1 {
        fill: #31b996;
      }
    </style>
  </defs>
  <polygon class="st1" points="517.4 362.5 517.4 394 429.7 418.5 429.7 386.8 517.4 362.5"/>
  <polygon class="st1" points="517.4 311.2 517.4 342.7 429.7 367.2 429.7 335.5 517.4 311.2"/>
  <polygon class="st1" points="959.8 37.2 957 57.5 842 98.1 844 78.1 959.8 37.2"/>
  <polygon class="st1" points="959.8 .5 957.3 19.6 908 36.9 910.4 18.1 910.4 18.1 959.8 .5"/>
  <polygon class="st1" points="781.6 37.2 778.6 57.5 663.9 98.1 665.6 78.1 781.6 37.2"/>
  <path class="st0" d="M959.8,87.5v294.4l-132.8,36.9v-31.7l101.8-28.2,1-229-71.1,31.5-2,183.6-30,9.7,2-189.8c0-13.6,7.7-26,20.1-32l111.3-45.3h-.2Z"/>
  <path class="st0" d="M741.7,227.5v31.7l-160.3,44.6v46.8l-30,8.4v-51.3c0-15.9,10.7-30,26-34.2l4-1.2,160.3-44.6h0v-.2Z"/>
  <path class="st0" d="M803.6,144v145l-30,9.7v-112l-103.6,36.9v81l51.8-13.9v30.7l-51.8,14.9c-14.9,4.7-30-6.2-30-21.8v-87c0-15.1,9.4-28.5,23.5-33.5l140-50.1h0Z"/>
  <polygon class="st0" points="803.6 320.2 803.6 351.9 770.9 360.3 770.9 360.6 551.4 418.5 551.4 387.1 584.1 378.4 584.1 378.2 803.6 320.2"/>
  <path class="st0" d="M517.2,170h0l-.5,31.7-29.2,8.2h-.2l-210.9,58.7-34.7,9.7-211.6,58.5v15.6l-30,8.4v-20.1c0-15.9,10.7-30,26-34.2l4-1.2,246.8-68.1h0l210.4-58.5,30-8.4h0v-.2Z"/>
  <path class="st0" d="M413.1,88v86.7l-30,8.4v-47.1l-42.4,20.3v38.4l-30,8.4v-43.4c0-13.6,7.7-26,20.1-32l82.5-39.9h-.2Z"/>
  <path class="st0" d="M297.4,119.9v86.7l-30,8.4v-47.1l-42.4,20.3v38.4l-30,8.4v-43.4c0-13.6,7.7-26,20.1-32l82.5-39.9h-.2Z"/>
  <path class="st0" d="M181.4,152.2v86.7l-30,8.4v-47.1l-42.4,20.3v38.4l-30,8.4v-43.4c0-13.6,7.7-26,20.1-32l82.5-39.9h-.2Z"/>
  <path class="st0" d="M617.8,3.5v214.8c0,15.9-10.7,30-26,34.2l-4,1.2-99.6,27.8-146,40.6h0L0,418.5l.5-31.7,342.2-96.4,34.7-9.7,210.4-58.5V46.1l-70.9,31.5.5,59.2-3,1-26.3,8.4v-60.5c0-13.9,8.2-26.5,20.8-32.5L618,3.7h0l-.2-.2Z"/>
  <path class="st1" d="M872.3,11.4c4.2,0,7.4,3.5,7.4,7.4s-3.5,7.4-7.4,7.4-7.4-3.5-7.4-7.4,3.5-7.4,7.4-7.4ZM872.3.2c-10.2,0-18.3,8.2-18.3,18.3s3.5,12.4,8.9,15.6l-6.7,2.2-1.7,12.9,33.5-11.9,1.7-12.9h0c.7-2,1-4,1-6.2,0-10.2-8.2-18.3-18.6-18.3h0l.2.2Z"/>
  <path class="st1" d="M362,11.2c-4.2,0-7.4,3.5-7.4,7.4s3.5,7.4,7.4,7.4,7.4-3.5,7.4-7.4-3.5-7.4-7.4-7.4ZM362,36.9c-10.2,0-18.3-8.2-18.3-18.3S351.9.2,362,.2s18.3,8.2,18.3,18.3-8.2,18.3-18.3,18.3Z"/>
</svg>